<?xml version="1.0" encoding="UTF-8"?>
<svg id="Layer_1" data-name="Layer 1" xmlns="http://www.w3.org/2000/svg" viewBox="0 0 1024 1024">
  <defs>
    <style>
      .cls-1 {
        fill: #fff;
      }
    </style>
  </defs>
  <path class="cls-1" d="M512,896.41c-35.4,0-71.22-4.91-106.51-15.15-13.75-3.99-21-19.02-15.53-32.25l92.58-223.5c8.1-19.57,18.78-29.38,29.46-29.44v-167.49c-10.68-.06-21.36-9.87-29.46-29.44l-92.57-223.48c-5.63-13.6,1.31-28.13,15.44-32.23,34.39-9.97,70.26-15.17,106.59-15.2V48.33c-256.21.06-463.9,207.77-463.9,464s207.68,463.94,463.9,464v-79.92ZM175.82,326.92c34.12-61.99,85.49-114.94,150.8-150.86,12.55-6.9,28.31-1.4,33.78,11.83l92.58,223.5c16.26,39.26-2.55,58.07-41.81,41.81l-223.48-92.57c-13.6-5.63-18.97-20.82-11.87-33.71ZM143.21,619.01c-19.7-67.96-20.82-141.73-.04-213.3,3.99-13.75,19.02-21,32.25-15.53l223.5,92.58c39.26,16.26,39.26,42.87,0,59.13l-223.48,92.57c-13.6,5.63-28.13-1.31-32.23-15.44ZM326.7,848.61c-61.99-34.12-114.94-85.49-150.86-150.8-6.9-12.55-1.4-28.31,11.83-33.78l223.5-92.58c39.26-16.26,58.07,2.55,41.81,41.81l-92.57,223.48c-5.63,13.6-20.82,18.97-33.71,11.87Z"/>
</svg>